<?xml version="1.0" encoding="UTF-8" standalone="no"?>
<!-- Created with Inkscape (http://www.inkscape.org/) -->

<svg
   width="7.9375mm"
   height="7.9375mm"
   viewBox="0 0 7.9375 7.9375"
   version="1.1"
   id="svg8"
   inkscape:version="1.3.2 (1:1.3.2+202311252150+091e20ef0f)"
   sodipodi:docname="icon-mail.svg"
   inkscape:export-filename="favicon.png"
   inkscape:export-xdpi="96"
   inkscape:export-ydpi="96"
   xmlns:inkscape="http://www.inkscape.org/namespaces/inkscape"
   xmlns:sodipodi="http://sodipodi.sourceforge.net/DTD/sodipodi-0.dtd"
   xmlns="http://www.w3.org/2000/svg"
   xmlns:svg="http://www.w3.org/2000/svg"
   xmlns:rdf="http://www.w3.org/1999/02/22-rdf-syntax-ns#"
   xmlns:cc="http://creativecommons.org/ns#"
   xmlns:dc="http://purl.org/dc/elements/1.1/">
  <defs
     id="defs2" />
  <sodipodi:namedview
     id="base"
     pagecolor="#d2d2d2"
     bordercolor="#666666"
     borderopacity="1.0"
     inkscape:pageopacity="0"
     inkscape:pageshadow="2"
     inkscape:zoom="0.39375"
     inkscape:cx="-81.051971"
     inkscape:cy="558.86667"
     inkscape:document-units="mm"
     inkscape:current-layer="layer1"
     showgrid="false"
     inkscape:window-width="1366"
     inkscape:window-height="741"
     inkscape:window-x="0"
     inkscape:window-y="0"
     inkscape:window-maximized="1"
     inkscape:showpageshadow="2"
     inkscape:pagecheckerboard="0"
     inkscape:deskcolor="#d1d1d1" />
  <metadata
     id="metadata5">
    <rdf:RDF>
      <cc:Work
         rdf:about="">
        <dc:format>image/svg+xml</dc:format>
        <dc:type
           rdf:resource="http://purl.org/dc/dcmitype/StillImage" />
        <dc:title />
      </cc:Work>
    </rdf:RDF>
  </metadata>
  <g
     inkscape:label="Capa 1"
     inkscape:groupmode="layer"
     id="layer1"
     transform="translate(-16.730116,-267.14807)">
    <rect
       style="fill:#ffffff;fill-opacity:1;stroke-width:0.530165;-inkscape-stroke:none;paint-order:fill markers stroke"
       id="rect1"
       width="7.9375"
       height="7.9375"
       x="16.730116"
       y="267.14807" />
    <g
       id="g742"
       transform="matrix(0.27478003,0,0,0.27478003,206.56729,124.7555)"
       style="fill:#000000;fill-opacity:1;stroke-width:5.91864">
      <g
         id="g741"
         style="stroke-width:5.91864">
        <path
           id="path741"
           style="color:#000000;stroke-width:5.91864;stroke-linecap:round;stroke-linejoin:round;-inkscape-stroke:none;paint-order:fill markers stroke"
           d="m -688.27051,522.74088 c -0.51417,0 -0.7978,0.14354 -0.93379,0.23245 -0.13618,0.0889 -0.20868,0.17211 -0.27591,0.26303 -0.13415,0.18184 -0.22813,0.40218 -0.31127,0.66982 -0.16649,0.53529 -0.10361,1.25163 -0.10361,2.04617 v 13.39643 c 0,0.79455 -0.0626,1.51088 0.10361,2.04617 0.0834,0.26765 0.17735,0.48799 0.31127,0.66982 0.0672,0.0909 0.13971,0.17107 0.27591,0.25998 0.13617,0.0889 0.41962,0.23245 0.93379,0.23245 H -664.67 c 0.54045,0 0.84603,-0.14353 0.98901,-0.23245 0.14314,-0.0889 0.21936,-0.16906 0.29,-0.25998 0.14101,-0.18183 0.2398,-0.40217 0.3272,-0.66982 0.17474,-0.53529 0.1036,-1.25162 0.1036,-2.04617 v -13.39643 c 0,-0.79454 0.0714,-1.51088 -0.1036,-2.04617 -0.0874,-0.26764 -0.18616,-0.48798 -0.3272,-0.66982 -0.0706,-0.0909 -0.14686,-0.17412 -0.29,-0.26303 -0.14314,-0.0889 -0.44856,-0.23245 -0.98901,-0.23245 z m 11.80905,1.72502 8.93536,0.0459 c 0.49471,0.003 0.68541,0.0314 0.94926,0.0489 -0.27312,0.23949 -0.60465,0.52926 -1.03047,0.89922 -0.9476,0.8233 -2.21996,1.9246 -3.58983,3.10442 -1.37033,1.18024 -2.64779,2.27946 -3.59823,3.10137 -0.47522,0.41095 -0.86919,0.75289 -1.15366,1.00014 -0.23297,0.20247 -0.33113,0.28874 -0.41163,0.36091 -0.0135,-0.005 -0.005,-0.002 -0.0251,-0.0122 -0.12915,-0.0651 -0.38065,-0.23 -0.76445,-0.52912 -0.7676,-0.59823 -2.08451,-1.72148 -4.33188,-3.66414 -1.43767,-1.24277 -2.77151,-2.40206 -3.76343,-3.26959 -0.46566,-0.40726 -0.8364,-0.73479 -1.12568,-0.99097 0.24713,-0.0174 0.40718,-0.0465 0.87366,-0.0489 l 9.03617,-0.0459 z m 11.71313,0.95121 v 6.75632 c 0,2.08177 -0.0163,3.97411 -0.0392,5.34328 -0.0106,0.6358 -0.0198,1.12744 -0.0336,1.50175 -0.21643,-0.17962 -0.46684,-0.38799 -0.80085,-0.67288 -0.78611,-0.67049 -1.85561,-1.5954 -3.01579,-2.612 -1.16104,-1.01737 -2.22255,-1.94729 -2.99619,-2.62729 -0.38681,-0.34 -0.70142,-0.61971 -0.92125,-0.81357 -0.012,-0.0106 -0.0167,-0.0145 -0.028,-0.0245 0.0228,-0.0211 0.0274,-0.0252 0.0532,-0.0489 0.2683,-0.24578 0.69941,-0.63715 1.34128,-1.19589 l 6.4404,-5.60631 z m -23.37587,0.12845 c 0.1121,0 0.14448,0.12037 0.24921,0.20799 0.4642,0.38837 1.09287,0.92669 1.77531,1.51703 1.36744,1.18295 3.30432,2.85637 4.30387,3.7192 0.49804,0.42992 0.94728,0.82621 1.26568,1.11331 0.0765,0.0689 0.11618,0.10668 0.17641,0.1621 -0.30589,0.26502 -1.86419,1.62569 -4.06305,3.55709 l -3.76064,3.30323 v -6.74715 c 0,-2.08008 0.009,-3.97082 0.0252,-5.34022 0.007,-0.6302 -0.34726,-1.49258 0.028,-1.49258 z m 9.13697,7.9981 c 0,-0.0639 0.10882,0.0666 0.19042,0.12235 0.22745,0.15529 0.53647,0.3873 0.85965,0.65147 0.33676,0.27527 0.58164,0.4868 0.81485,0.64229 0.23321,0.1555 0.48249,0.26459 0.75044,0.23857 0.53592,-0.0521 0.89211,-0.46748 1.67451,-1.16225 0.18157,-0.16124 0.36881,-0.31066 0.51244,-0.4129 0.0428,-0.0304 0.0707,-0.0464 0.1036,-0.0673 0.0608,0.0469 0.12476,0.0995 0.22122,0.17739 0.23935,0.19329 0.5791,0.47203 0.98286,0.81052 0.8075,0.67699 1.87926,1.5911 2.96819,2.52636 1.08891,0.93526 2.19628,1.89306 3.07459,2.66399 0.57875,0.508 0.80579,0.72293 1.11167,1.0032 -0.2879,0.0192 -0.52706,0.0426 -1.09767,0.0551 -1.65131,0.0363 -4.60743,0.0428 -9.69141,0.0428 h -10.83668 l 3.80543,-3.3277 c 1.26596,-1.10703 2.42885,-2.12294 3.28461,-2.86586 0.42788,-0.37146 0.77742,-0.67406 1.02487,-0.88698 0.10486,-0.0902 0.24641,-0.12519 0.24641,-0.21104 z"
           sodipodi:nodetypes="ssssssssssssssssssssscscsssscsssscscccsscsssscssccssssscscssssssssssscsssscsscsssss" />
      </g>
    </g>
  </g>
</svg>
