<?xml version="1.0" encoding="UTF-8" standalone="no"?>
<!-- Created with Inkscape (http://www.inkscape.org/) -->

<svg
   width="7.9375mm"
   height="7.9375mm"
   viewBox="0 0 7.9375 7.9375"
   version="1.1"
   id="svg8"
   inkscape:version="1.3.2 (1:1.3.2+202311252150+091e20ef0f)"
   sodipodi:docname="icon-whatsapp.svg"
   inkscape:export-filename="favicon.png"
   inkscape:export-xdpi="96"
   inkscape:export-ydpi="96"
   xmlns:inkscape="http://www.inkscape.org/namespaces/inkscape"
   xmlns:sodipodi="http://sodipodi.sourceforge.net/DTD/sodipodi-0.dtd"
   xmlns="http://www.w3.org/2000/svg"
   xmlns:svg="http://www.w3.org/2000/svg"
   xmlns:rdf="http://www.w3.org/1999/02/22-rdf-syntax-ns#"
   xmlns:cc="http://creativecommons.org/ns#"
   xmlns:dc="http://purl.org/dc/elements/1.1/">
  <defs
     id="defs2" />
  <sodipodi:namedview
     id="base"
     pagecolor="#d2d2d2"
     bordercolor="#666666"
     borderopacity="1.0"
     inkscape:pageopacity="0"
     inkscape:pageshadow="2"
     inkscape:zoom="0.39375"
     inkscape:cx="-81.051971"
     inkscape:cy="558.86667"
     inkscape:document-units="mm"
     inkscape:current-layer="layer1"
     showgrid="false"
     inkscape:window-width="1366"
     inkscape:window-height="741"
     inkscape:window-x="0"
     inkscape:window-y="0"
     inkscape:window-maximized="1"
     inkscape:showpageshadow="2"
     inkscape:pagecheckerboard="0"
     inkscape:deskcolor="#d1d1d1" />
  <metadata
     id="metadata5">
    <rdf:RDF>
      <cc:Work
         rdf:about="">
        <dc:format>image/svg+xml</dc:format>
        <dc:type
           rdf:resource="http://purl.org/dc/dcmitype/StillImage" />
      </cc:Work>
    </rdf:RDF>
  </metadata>
  <g
     inkscape:label="Capa 1"
     inkscape:groupmode="layer"
     id="layer1"
     transform="translate(-16.730116,-267.14807)">
    <rect
       style="fill:#ffffff;fill-opacity:1;stroke-width:0.530165;-inkscape-stroke:none;paint-order:fill markers stroke"
       id="rect1"
       width="7.9375"
       height="7.9375"
       x="16.730116"
       y="267.14807" />
    <g
       id="g739"
       transform="matrix(0.20194654,0,0,0.20194654,174.13242,169.81522)"
       style="fill:#000000;fill-opacity:1;stroke-width:5.81057">
      <path
         style="fill:#000000;fill-opacity:1;stroke-width:5.81057"
         d="m -775.99423,517.82095 c 0,-0.038 1.42182,-4.26343 2.39999,-7.1324 l 0.41605,-1.22029 -0.56362,-1.13708 c -0.88529,-1.78601 -1.32113,-3.20633 -1.57014,-5.1167 -0.99999,-7.67211 3.86089,-15.04246 11.34424,-17.20075 2.0979,-0.60506 4.55922,-0.78137 6.70401,-0.48023 6.47006,0.90846 11.67588,5.56855 13.27707,11.8852 0.30853,1.21719 0.43298,2.29368 0.43458,3.75941 0.004,3.71132 -1.10002,6.91494 -3.39528,9.85171 -0.56401,0.72163 -1.99514,2.13815 -2.7164,2.68865 -4.82286,3.68099 -11.22138,4.38082 -16.64846,1.82088 -0.45955,-0.21679 -0.88149,-0.39414 -0.93765,-0.39414 -0.0561,0 -2.02503,0.61131 -4.37528,1.35848 -2.35024,0.74716 -4.29476,1.35848 -4.32114,1.35848 -0.0263,0 -0.048,-0.0185 -0.048,-0.0413 z m 18.77895,-3.47727 c 3.56044,-0.58137 6.8488,-2.69461 8.88178,-5.7078 1.85916,-2.75555 2.61298,-6.05907 2.13423,-9.3529 -0.76487,-5.2624 -4.73235,-9.63814 -9.93504,-10.95737 -3.75228,-0.95146 -7.67737,-0.27485 -10.87377,1.87446 -2.90105,1.95071 -4.88366,4.90193 -5.63601,8.38952 -0.26188,1.21393 -0.3031,3.50875 -0.0859,4.78083 0.29841,1.74761 0.92765,3.40793 1.8443,4.86638 0.26686,0.42457 0.48518,0.80521 0.48518,0.84585 0,0.0407 -0.36002,1.13923 -0.80005,2.44131 -0.44003,1.30208 -0.78456,2.38292 -0.7656,2.40187 0.019,0.019 1.17448,-0.3301 2.56785,-0.77567 l 2.53339,-0.81013 0.29823,0.19736 c 0.57048,0.37753 1.94264,1.02171 2.75615,1.29394 2.13419,0.71414 4.31972,0.88392 6.59525,0.51235 z m 0.31964,-5.87074 c -1.45496,-0.40232 -3.13736,-1.07559 -4.06532,-1.62688 -2.01125,-1.19486 -4.2644,-3.54148 -5.74825,-5.9867 -1.44187,-2.37604 -1.33205,-4.65113 0.30564,-6.3325 0.47683,-0.48955 0.81119,-0.58876 1.69161,-0.50193 0.55855,0.0551 0.66826,0.0914 0.79657,0.26365 0.2149,0.28849 1.50593,3.41478 1.50593,3.64664 0,0.29857 -0.2669,0.75811 -0.79739,1.37296 -0.29493,0.34183 -0.48101,0.63045 -0.48077,0.7457 0.001,0.52547 1.6207,2.49447 2.82392,3.4332 0.82039,0.64005 2.37039,1.48073 2.88366,1.56402 0.35625,0.0578 0.43423,-0.007 1.38714,-1.16199 l 0.68325,-0.8278 0.30967,0.0415 c 0.28289,0.038 2.91172,1.22864 3.49279,1.58201 0.23155,0.14081 0.24591,0.17814 0.24591,0.63863 0,0.62134 -0.19025,1.35977 -0.45239,1.7559 -0.11221,0.16954 -0.38894,0.4495 -0.61497,0.62211 -1.19759,0.91451 -2.51972,1.17162 -3.967,0.77143 z"
         id="path739" />
    </g>
  </g>
</svg>
